<svg width="813" height="371" viewBox="0 0 813 371" fill="none" xmlns="http://www.w3.org/2000/svg">
<path d="M27.8144 157.416C27.8144 115.881 27.8144 95.1217 34.5976 78.7251C39.0773 67.9099 45.6426 58.0834 53.9187 49.8068C62.1949 41.5302 72.0197 34.9656 82.8321 30.4879C99.2054 23.702 119.956 23.702 161.474 23.702H217.177C258.695 23.702 279.445 23.702 295.819 30.4879C306.631 34.9656 316.456 41.5302 324.732 49.8068C333.008 58.0834 339.574 67.9099 344.053 78.7251C350.836 95.105 350.836 115.881 350.836 157.416V213.124C350.836 254.659 350.836 275.435 344.053 291.814C335.005 313.656 317.654 331.007 295.819 340.052C279.445 346.838 258.695 346.838 217.177 346.838H161.474C119.956 346.838 99.2054 346.838 82.8321 340.052C72.0197 335.574 62.1949 329.009 53.9187 320.733C45.6426 312.456 39.0773 302.63 34.5976 291.814C27.8144 275.435 27.8144 254.659 27.8144 213.124V157.416Z" fill="#229A00"/>
<path fill-rule="evenodd" clip-rule="evenodd" d="M595.12 1.41797H652.393C672.476 1.41797 688.682 1.41797 701.881 2.32053C715.431 3.23981 727.427 5.19538 738.788 9.89207C766.08 21.2019 787.763 42.894 799.068 70.1969C803.763 81.5625 805.718 93.5634 806.637 107.135C807.539 120.323 807.539 136.536 807.539 156.626V213.922C807.539 234.013 807.539 250.226 806.637 263.43C805.718 276.985 803.763 288.986 799.068 300.351C787.761 327.649 766.077 349.335 738.788 360.64C727.427 365.353 715.431 367.308 701.864 368.228C688.682 369.13 672.476 369.13 652.393 369.13H595.12C575.038 369.13 558.832 369.13 545.633 368.228C532.083 367.308 520.087 365.353 508.726 360.64C481.436 349.335 459.753 327.649 448.445 300.351C443.751 288.986 441.796 276.985 440.877 263.413C439.975 250.242 439.975 234.029 439.975 213.939V156.643C439.975 136.552 439.975 120.339 440.877 107.135C441.796 93.5801 443.751 81.5793 448.445 70.2136C459.751 42.9107 481.434 21.2186 508.726 9.90879C520.087 5.2121 532.083 3.25654 545.649 2.33725C558.815 1.41797 575.038 1.41797 595.12 1.41797ZM548.674 46.7803C537.379 47.5492 530.797 49.0033 525.784 51.0759C517.675 54.4357 510.307 59.3608 504.101 65.5696C497.894 71.7785 492.971 79.1497 489.613 87.2621C487.541 92.2763 486.104 98.8617 485.319 110.161C484.534 121.66 484.534 136.352 484.534 157.412V213.137C484.534 234.197 484.534 248.905 485.319 260.388C486.087 271.687 487.541 278.272 489.613 283.286C492.971 291.399 497.894 298.77 504.101 304.979C510.307 311.188 517.675 316.113 525.784 319.472C530.797 321.545 537.379 322.982 548.674 323.768C560.168 324.554 574.854 324.554 595.906 324.554H651.608C672.66 324.554 687.362 324.554 698.84 323.768C710.134 322.999 716.717 321.545 721.729 319.472C729.839 316.113 737.207 311.188 743.413 304.979C749.619 298.77 754.543 291.399 757.901 283.286C759.973 278.272 761.41 271.687 762.195 260.388C762.98 248.888 762.98 234.197 762.98 213.137V157.412C762.98 136.352 762.98 121.643 762.195 110.161C761.426 98.8617 759.973 92.2763 757.901 87.2621C754.543 79.1497 749.619 71.7785 743.413 65.5696C737.207 59.3608 729.839 54.4357 721.729 51.0759C716.717 49.0033 710.134 47.5659 698.84 46.7803C687.345 45.9947 672.66 45.9947 651.608 45.9947H595.906C574.854 45.9947 560.152 45.9947 548.674 46.7803Z" fill="#229A00"/>
<path fill-rule="evenodd" clip-rule="evenodd" d="M160.674 1.41797H217.947C238.029 1.41797 254.235 1.41797 267.434 2.32053C280.984 3.23981 292.98 5.19538 304.341 9.89207C331.627 21.2055 353.304 42.8972 364.605 70.1969C369.316 81.5625 371.271 93.5634 372.19 107.135C373.092 120.323 373.092 136.536 373.092 156.626V213.922C373.092 234.013 373.092 250.226 372.19 263.43C371.271 276.985 369.316 288.986 364.605 300.351C353.302 327.646 331.625 349.332 304.341 360.64C292.98 365.353 280.984 367.308 267.418 368.228C254.235 369.13 238.029 369.13 217.947 369.13H160.674C140.591 369.13 124.385 369.13 111.186 368.228C97.6364 367.308 85.6405 365.353 74.2794 360.64C46.9907 349.334 25.3078 327.648 13.9989 300.351C9.30408 288.986 7.34931 276.985 6.4304 263.413C5.5282 250.242 5.5282 234.029 5.5282 213.939V156.643C5.5282 136.552 5.5282 120.339 6.4304 107.135C7.34931 93.5801 9.30408 81.5793 13.9989 70.2136C25.3041 42.9107 46.9875 21.2186 74.2794 9.90879C85.6405 5.2121 97.6364 3.25654 111.203 2.33725C124.368 1.41797 140.591 1.41797 160.674 1.41797ZM114.227 46.7803C102.933 47.5492 96.3499 49.0033 91.3377 51.0759C83.2285 54.4357 75.8604 59.3608 69.654 65.5696C63.4476 71.7785 58.5246 79.1497 55.1661 87.2621C53.0943 92.2763 51.6575 98.8617 50.8722 110.161C50.087 121.66 50.087 136.352 50.087 157.412V213.137C50.087 234.197 50.087 248.905 50.8722 260.388C51.6408 271.687 53.0943 278.272 55.1661 283.286C58.5246 291.399 63.4476 298.77 69.654 304.979C75.8604 311.188 83.2285 316.113 91.3377 319.472C96.3499 321.545 102.933 322.982 114.227 323.768C125.722 324.554 140.408 324.554 161.459 324.554H217.162C238.213 324.554 252.916 324.554 264.394 323.768C275.688 322.999 282.271 321.545 287.283 319.472C295.392 316.113 302.76 311.188 308.967 304.979C315.173 298.77 320.096 291.399 323.454 283.286C325.526 278.272 326.963 271.687 327.748 260.388C328.534 248.888 328.534 234.197 328.534 213.137V157.412C328.534 136.352 328.534 121.643 327.748 110.161C326.98 98.8617 325.526 92.2763 323.454 87.2621C320.096 79.1497 315.173 71.7785 308.967 65.5696C302.76 59.3608 295.392 54.4357 287.283 51.0759C282.271 49.0033 275.688 47.5659 264.394 46.7803C252.899 45.9947 238.213 45.9947 217.162 45.9947H161.459C140.408 45.9947 125.705 45.9947 114.227 46.7803Z" fill="#0B3100"/>
<path d="M245.038 157.416C245.038 115.881 245.038 95.1217 251.821 78.7251C256.301 67.9099 262.866 58.0834 271.142 49.8068C279.418 41.5302 289.243 34.9656 300.055 30.4879C316.429 23.702 337.179 23.702 378.697 23.702H434.4C475.918 23.702 496.669 23.702 513.042 30.4879C523.854 34.9656 533.679 41.5302 541.955 49.8068C550.232 58.0834 556.797 67.9099 561.277 78.7251C568.06 95.105 568.06 115.881 568.06 157.416V213.124C568.06 254.659 568.06 275.435 561.277 291.814C552.228 313.656 534.878 331.007 513.042 340.052C496.669 346.838 475.918 346.838 434.4 346.838H378.697C337.179 346.838 316.429 346.838 300.055 340.052C278.22 331.007 260.869 313.656 251.821 291.814C245.038 275.435 245.038 254.659 245.038 213.124V157.416Z" fill="#E0E0E0"/>
</svg>
